<svg width="141px" height="34px" viewBox="0 0 141 34" version="1.1" xmlns="http://www.w3.org/2000/svg" xmlns:xlink="http://www.w3.org/1999/xlink">
    <!-- Generator: Sketch 59.1 (86144) - https://sketch.com -->
    <title>logo-arc</title>
    <desc>Created with Sketch.</desc>
    <g id="Responsive-Template" stroke="none" stroke-width="1" fill="none" fill-rule="evenodd">
        <g id="ARC-Conventions" transform="translate(-86.000000, -85.000000)">
            <g id="logo-arc" transform="translate(86.000000, 85.000000)">
                <g id="logo-arc-rgb-colour" transform="translate(0.000000, -1.000000)">
                    <g id="Group-8" fill="#0D2444">
                        <path d="M10.9199998,22.7499996 L17.9339997,22.7499996 L17.0526997,15.0632997 C16.9392997,14.2512998 16.8769997,13.5239998 16.8629997,12.8799998 C16.8482997,12.2359998 16.8419997,11.7879998 16.8419997,11.5352998 L16.8419997,10.9059998 L16.5899997,10.9059998 C16.5332997,11.0459998 16.3729997,11.4379998 16.1069997,12.0819998 C15.8402997,12.7259998 15.4279997,13.6079998 14.8679997,14.7272997 L10.9199998,22.7499996 Z M18.3539997,25.8572996 L9.40799984,25.8572996 L7.76999987,29.2179995 C7.62999987,29.5252995 7.52429987,29.7849995 7.45569987,29.9942995 C7.38499987,30.2049995 7.34999987,30.4079995 7.34999987,30.6039995 C7.34999987,30.9959995 7.53199987,31.2822995 7.89599987,31.4642995 C8.25929986,31.6476995 8.84799985,31.7519995 9.65999984,31.7799995 L9.28199984,33.7119994 L0,33.7119994 L0.335999994,31.7799995 C0.783999987,31.7239995 1.18369998,31.6539995 1.53299997,31.5692995 C1.88369997,31.4852995 2.19869996,31.3382995 2.47799996,31.1289995 C2.75799995,30.9189995 3.02399995,30.6452995 3.27599994,30.3099995 C3.52799994,29.9739995 3.80799994,29.5252995 4.11599993,28.9659995 L16.7159997,4.52129992 L21.9659996,4.52129992 L25.6199996,28.9659995 C25.7039996,29.4979995 25.7949996,29.9319995 25.8929996,30.2679995 C25.9909996,30.6039995 26.1239996,30.8762995 26.2919996,31.0869995 C26.4599995,31.2962995 26.6769995,31.4502995 26.9429995,31.5489995 C27.2082995,31.6476995 27.5526995,31.7239995 27.9719995,31.7799995 L27.5939995,33.7119994 L15.6659997,33.7119994 L16.0026997,31.7799995 C17.1499997,31.7239995 17.9059997,31.5692995 18.2699997,31.3179995 C18.6332997,31.0659995 18.8159997,30.6452995 18.8159997,30.0572995 L18.8159997,29.8479995 C18.8159997,29.7919995 18.8019997,29.6659995 18.7739997,29.4692995 L18.3539997,25.8572996 L18.3539997,25.8572996 Z" id="Fill-1"></path>
                        <path d="M33.5999994,18.2132997 C33.6839994,17.7939997 33.7266994,17.4299997 33.7266994,17.1212997 C33.7266994,16.4226997 33.5089994,15.9179997 33.0749994,15.6099997 C32.6409994,15.3012997 31.8919995,15.1339997 30.8279995,15.1059997 L31.2059995,13.4679998 C31.9339995,13.1046998 32.7396994,12.7819998 33.6209994,12.5012998 C34.5029994,12.2226998 35.4619994,12.0819998 36.4986994,12.0819998 C37.4779994,12.0819998 38.2269993,12.4382998 38.7456993,13.1522998 C39.2629993,13.8662998 39.5219993,14.9379997 39.5219993,16.3659997 C39.5219993,16.8692997 39.4806993,17.4299997 39.3959993,18.0452997 C39.7879993,17.1786997 40.2289993,16.3589997 40.7189993,15.5882997 C41.2082993,14.8189997 41.7332993,14.1546998 42.2939993,13.5939998 C42.8539993,13.0339998 43.4552993,12.5929998 44.0999992,12.2702998 C44.7439992,11.9489998 45.4159992,11.7879998 46.1159992,11.7879998 C46.5079992,11.7879998 46.8439992,11.8159998 47.1239992,11.8712998 C47.4039992,11.9286998 47.7119992,12.0392998 48.0486992,12.2072998 L46.5366992,18.5499997 C46.1159992,18.3819997 45.7379992,18.2629997 45.4019992,18.1929997 C45.0659992,18.1229997 44.6732992,18.0879997 44.2266992,18.0879997 C43.5259993,18.0879997 42.8749993,18.1859997 42.2736993,18.3819997 C41.6702993,18.5779997 41.1179993,18.9272997 40.6146993,19.4319997 C40.1099993,19.9352997 39.6619993,20.6289996 39.2706993,21.5102996 C38.8779993,22.3929996 38.5419993,23.5199996 38.2619993,24.8912996 L36.3719994,33.7119994 L30.2819995,33.7119994 L33.5999994,18.2132997" id="Fill-3"></path>
                        <path d="M60.438699,11.7879998 C62.0619989,11.7879998 63.3849989,11.9762998 64.4076989,12.3549998 C65.4296989,12.7322998 66.1926989,13.1319998 66.6959989,13.5512998 L65.8146989,18.1299997 L61.614699,18.1299997 L61.614699,17.4159997 C61.614699,16.4639997 61.494999,15.7352997 61.257699,15.2319997 C61.018999,14.7272997 60.522699,14.4752998 59.766699,14.4752998 C58.926699,14.4752998 58.162999,14.7979997 57.476999,15.4412997 C56.790999,16.0859997 56.202999,16.9476997 55.7136991,18.0249997 C55.2236991,19.1029997 54.8379991,20.3349997 54.5586991,21.7202996 C54.2779991,23.1069996 54.1386991,24.5419996 54.1386991,26.0252996 C54.1386991,29.1059995 55.3839991,30.6452995 57.876699,30.6452995 C58.995999,30.6452995 59.927699,30.4569995 60.669699,30.0789995 C61.410999,29.7002995 62.1739989,29.2179995 62.9586989,28.6299995 L64.3019989,30.5619995 C63.9099989,31.0379995 63.4479989,31.4999995 62.9166989,31.9479995 C62.3839989,32.3952994 61.7749989,32.7942994 61.089699,33.1442994 C60.402999,33.4949994 59.632999,33.7749994 58.779699,33.9849994 C57.924999,34.1942994 56.965999,34.2999994 55.901999,34.2999994 C53.3259991,34.2999994 51.3309991,33.5502994 49.9176991,32.0522995 C48.5029992,30.5549995 47.7959992,28.4192995 47.7959992,25.6479996 C47.7959992,24.0239996 48.0829992,22.3859996 48.6576992,20.7332996 C49.2309992,19.0819997 50.0576991,17.5909997 51.1356991,16.2602997 C52.2129991,14.9309997 53.5359991,13.8529998 55.1046991,13.0262998 C56.671999,12.2009998 58.449999,11.7879998 60.438699,11.7879998" id="Fill-4"></path>
                        <path d="M80.0519986,29.5539995 C79.0999987,31.0099995 77.9869987,32.1649995 76.7129987,33.0189994 C75.4389987,33.8715994 73.9892987,34.2999994 72.3659988,34.2999994 C70.8539988,34.2999994 69.7479988,33.9072994 69.0479988,33.1239994 C68.3479988,32.3399994 67.9979988,31.2899995 67.9979988,29.9739995 C67.9979988,29.3012995 68.0819988,28.5879995 68.2499988,27.8319995 L70.3926988,18.7599997 C70.4759988,18.4512997 70.5319988,18.1649997 70.5599988,17.8989997 C70.5879988,17.6322997 70.6019988,17.3879997 70.6019988,17.1632997 C70.6019988,16.4072997 70.3772988,15.8759997 69.9299988,15.5679997 C69.4819988,15.2599997 68.7539988,15.1059997 67.7459988,15.1059997 L68.0819988,13.4679998 C68.7539988,13.1319998 69.5449988,12.8162998 70.4549988,12.5222998 C71.3642988,12.2289998 72.3512988,12.0819998 73.4159987,12.0819998 C74.5639987,12.0819998 75.4459987,12.3752998 76.0619987,12.9632998 C76.6772987,13.5512998 76.9866987,14.4479998 76.9866987,15.6512997 C76.9866987,15.9606997 76.9579987,16.3169997 76.9019987,16.7222997 C76.8452987,17.1296997 76.7759987,17.5139997 76.6926987,17.8772997 L74.5499987,27.1599995 C74.4379987,27.6359995 74.3819987,28.0832995 74.3819987,28.5039995 C74.3819987,29.0072995 74.4939987,29.3642995 74.7179987,29.5749995 C74.9419987,29.7849995 75.2779987,29.8892995 75.7259987,29.8892995 C76.1459987,29.8892995 76.5799987,29.7569995 77.0279987,29.4909995 C77.4759987,29.2249995 77.9232987,28.8819995 78.3719987,28.4619995 C78.8199987,28.0412995 79.2539987,27.5519995 79.6739986,26.9912995 C80.0939986,26.4319995 80.4859986,25.8572996 80.8499986,25.2692996 L83.5799986,12.3332998 L89.5866985,12.3332998 L86.3519985,27.9159995 C86.2112985,28.6159995 86.1426985,29.1486995 86.1426985,29.5119995 C86.1426985,30.0439995 86.2896985,30.4219995 86.5836985,30.6452995 C86.8769985,30.8699995 87.3879985,30.9819995 88.1159985,30.9819995 C88.2839985,30.9819995 88.4659985,30.9749995 88.6619985,30.9602995 C88.8579985,30.9469995 89.0672985,30.9252995 89.2926985,30.8979995 L89.4179985,32.6192994 C88.5499985,33.0959994 87.6679985,33.4599994 86.7719985,33.7119994 C85.8759985,33.9632994 84.9239986,34.0892994 83.9159986,34.0892994 C82.5719986,34.0892994 81.5849986,33.7539994 80.9549986,33.0819998 C80.3249986,32.4099994 80.0099986,31.4439995 80.0099986,30.1832995 C80.0099986,30.0726995 80.0169986,29.9459995 80.0309986,29.8059995 C80.0449986,29.6659995 80.0519986,29.5819998 80.0519986,29.5539995" id="Fill-5"></path>
                        <path d="M98.1952983,34.2999994 C96.1512984,34.2999994 94.5475984,34.0752994 93.3862984,33.6272994 C92.2242984,33.1799994 91.3765984,32.7606994 90.8452985,32.3679994 L91.5592984,27.8319995 L95.3812984,27.8319995 L95.3812984,27.9999995 C95.3812984,29.1752995 95.6332984,30.0726995 96.1372984,30.6879995 C96.6412984,31.3046995 97.5085983,31.6119995 98.7412983,31.6119995 C99.7765983,31.6119995 100.679598,31.4089995 101.450298,31.0022995 C102.219598,30.5976995 102.605298,29.8199995 102.605298,28.6712995 C102.605298,27.8879995 102.366598,27.2999995 101.891298,26.9072995 C101.414598,26.5159995 100.742598,26.1666996 99.8752983,25.8572996 L98.0692983,25.2272996 C96.6132984,24.7512996 95.4575984,24.0512996 94.6049984,23.1272996 C93.7502984,22.2039996 93.3232984,20.9012996 93.3232984,19.2212997 C93.3232984,18.0179997 93.5549984,16.9476997 94.0162984,16.0082997 C94.4782984,15.0702997 95.1222984,14.2939998 95.9482984,13.6772998 C96.7735984,13.0619998 97.7332983,12.5929998 98.8252983,12.2702998 C99.9172983,11.9489998 101.093298,11.7879998 102.353298,11.7879998 C104.117298,11.7879998 105.551598,11.9692998 106.658298,12.3332998 C107.763598,12.6979998 108.638598,13.0619998 109.283298,13.4252998 L108.527298,17.8772997 L104.831298,17.8772997 C104.803298,16.8132997 104.572298,15.9662997 104.138298,15.3369997 C103.704298,14.7069997 102.899298,14.3912998 101.723298,14.3912998 C100.799298,14.3912998 100.001298,14.6369998 99.3299983,15.1262997 C98.6572983,15.6169997 98.3212983,16.3239997 98.3212983,17.2472997 C98.3212983,17.8352997 98.5242983,18.3119997 98.9302983,18.6752997 C99.3355983,19.0399997 99.9445983,19.3619997 100.757298,19.6412997 L102.605298,20.2712997 C104.453298,20.8879996 105.810598,21.6726996 106.679998,22.6239996 C107.547298,23.5752996 107.981298,24.8912996 107.981298,26.5712995 C107.981298,28.9512995 107.113298,30.8349995 105.377298,32.2202995 C103.641298,33.6069994 101.247298,34.2999994 98.1952983,34.2999994" id="Fill-6"></path>
                        <path d="M126.361898,19.5985997 C127.601598,24.8324996 127.656898,29.9186995 126.753898,34.2740994 L130.055098,34.2740994 C130.599698,30.3533995 130.409298,25.9496996 129.341098,21.4367996 C127.248098,12.5957998 119.797298,3.69389994 113.937598,0.447999992 C119.451498,3.50069994 124.273098,10.7757998 126.361898,19.5985997" id="Fill-7"></path>
                    </g>
                    <polyline id="Fill-9" fill="#BD3023" points="140.361898 11.5093998 133.867298 11.8348998 136.462198 12.7882998 113.543498 20.0521997 115.154198 24.0365996 136.670798 13.3041998 135.478698 15.8192997 140.361898 11.5093998"></polyline>
                </g>
            </g>
        </g>
    </g>
</svg>